<svg width="108" height="62" viewBox="0 0 108 62" fill="none" xmlns="http://www.w3.org/2000/svg">
<path d="M100.564 4H39.7383V4.00532H7.46595V5.08399H43.6764L43.431 6.01008H50.5533L50.219 6.92197H57.6044L57.0301 7.78242H7.47306V8.86108H41.2584L41.0095 9.7854H48.1389L47.7904 10.7115H55.0709L54.7989 11.1231H7.44995V12.2017H38.8778L38.6343 13.1225H45.7512L45.4151 14.0522H52.8414L52.2512 14.9339H7.4375V16.0197H36.483L36.2376 16.944H43.3528L43.0185 17.8647H50.2973L49.7052 18.7518H7.46595V19.8251H33.8802L33.6366 20.7477H40.7677L40.4193 21.6773L47.7513 21.6844L47.2979 22.3603H7.47839V23.4372H31.3858L31.1422 24.3633H38.2662L37.9249 25.2894H45.3405L44.6773 26.2794H7.49439V27.3563H28.886L28.6478 28.2841H35.7665L35.4251 29.2084H42.7216L42.1918 29.9997H7.47839V31.0677H26.4966L26.2476 31.992H33.3699L33.0357 32.911H40.2504L39.6512 33.8087H7.46595V34.8785H23.9062L23.6537 35.8135H30.7706L30.4346 36.7307H37.7026L37.1017 37.632H7.44995V38.7088H21.4989L21.2518 39.6243H28.3829L28.0309 40.5557H35.1478L34.6909 41.2387H7.44995V42.3174H19.0027L18.7538 43.2364H25.885L25.5347 44.1536H32.7459L32.1485 45.0495H7.46595V46.1282H16.6043L16.3608 47.0596L23.483 47.049L23.1417 47.968L30.1928 47.9786L29.6665 48.7663H7.48728V49.8414H14.2024L13.9535 50.7604L21.0846 50.7569L20.7486 51.683L27.7162 51.6901L27.1188 52.5842H7.4375V53.6629H11.8093L11.5533 54.5837H18.6845L18.3485 55.4991L25.1649 55.5097L24.7187 56.1715H7.47839V57.0656H100.548V56.9042L100.564 4.00177V4ZM68.398 5.08576V5.07689H75.819L75.5718 6.01008H82.6888L82.3563 6.92197H89.2616L88.8865 7.55533H68.2771L68.2558 5.08576H68.3998H68.398ZM92.421 37.4687H80.9998L80.95 36.9702L81.6931 35.6911L86.2819 35.652V36.736H92.4192L92.4227 37.4687H92.421ZM86.4739 43.0767V44.0418H92.4601L92.4672 45.046H76.2528L77.94 42.1471H80.2744V43.075H86.4757L86.4739 43.0767ZM68.4905 32.8472L73.8757 32.8525L73.2588 33.8957H68.5011L68.4922 32.8472H68.4905ZM92.3996 33.9045L83.2115 33.7715L82.9697 33.4912L83.9617 31.7845H86.4046V32.8862H92.3907L92.3978 33.9063L92.3996 33.9045ZM92.3534 26.2989L87.4588 26.2705V25.7631L87.7558 25.2557L92.3463 25.3054L92.3516 26.3007L92.3534 26.2989ZM92.3765 30.1487H85.1849V29.6804L86.0294 28.2256H86.273L86.3032 29.251L92.3712 29.2989L92.3765 30.1487ZM92.3321 22.5555H89.5585V22.1546L89.7826 21.7696H92.3267L92.3321 22.5555ZM76.1443 16.9369L75.8047 17.8647H82.7688L82.4576 18.3899H68.3678L68.3482 16.0214H69.2639L69.0149 16.9457L76.1461 16.9386L76.1443 16.9369ZM69.4719 28.1191L69.1394 29.0505H76.1319L75.4634 30.1771H68.4674L68.4496 28.1191H69.4719ZM68.5225 36.5959H71.6533L71.0186 37.6692H68.5314L68.5225 36.5959ZM75.7265 45.9526H80.3722V46.8822H86.5717V47.8385H92.4832L92.4903 48.8142H74.066L75.7283 45.9526H75.7265ZM78.4627 41.2441L79.9437 38.6964H80.3864L80.4699 39.5249H86.4081L86.4988 40.3765L92.4405 40.3339L92.4476 41.2441H78.4662H78.4627ZM91.868 18.7518L91.9054 18.1149L92.3001 17.4372L92.3089 18.7536H91.8698L91.868 18.7518ZM80.5464 9.57073L80.2033 10.4862H87.1459L86.7619 11.1302H68.3038L68.2825 8.63932H73.6659L73.4224 9.57073H80.5446H80.5464ZM68.3145 12.2017H71.4098L71.1555 13.1314L78.2867 13.1225L77.9435 14.0522H85.0302L84.5058 14.9339H68.3376L68.3145 12.2017ZM68.3838 20.3787H74.1264L73.7868 21.2959H80.7313L80.1268 22.316H68.4016L68.3838 20.3787ZM68.4176 24.303H71.6231L71.2747 25.2291H78.3987L77.8707 26.1197H68.4336L68.4176 24.303ZM50.7488 31.9175H54.1535V32.8614H60.4295L60.4366 33.7431H49.5452L50.7471 31.9175H50.7488ZM54.3331 43.224V44.1767H60.5362L60.545 45.1045H42.0656L43.9146 42.2961H48.1247V43.2222H54.3331V43.224ZM41.4753 46.0022H48.1247V46.9479H54.3331V47.8864H60.5699L60.5788 48.8745H39.5819L41.4736 46.0005L41.4753 46.0022ZM69.3919 40.412L68.5669 41.8029L68.5562 40.412H69.3936H69.3919ZM73.5308 49.7332H80.173V50.6575H86.3779V51.6156H92.5063L92.5099 52.5044H71.92L73.5308 49.735V49.7332ZM57.6773 21.397H60.321L60.3335 22.6726H57.2382L57.2239 22.0871L57.6791 21.3988L57.6773 21.397ZM59.8019 18.1681L60.2855 17.4372L60.2961 18.7678H59.8179L59.8019 18.1681ZM55.1065 25.3001H60.3584L60.3655 26.1428H54.5518L55.1065 25.3001ZM53.3428 27.979H54.3633V28.9352H60.3922L60.4028 30.0778H51.9596L53.3428 27.979ZM48.338 35.5793H54.438V36.5302H60.4615L60.4739 37.726H46.9228L48.338 35.5793ZM48.3682 38.6397V39.5728H54.5731V40.5273H60.5006L60.5095 41.3878H44.5138L46.3219 38.6397H48.3665H48.3682ZM38.9881 49.7793H48.2651V50.7161H54.4753V51.6688H60.6073L60.6179 52.7492H37.0306L38.9881 49.7776V49.7793ZM71.3973 53.3985H80.3899V54.33H86.593V55.2844H92.5276L92.5312 56.1679H69.7866L71.3955 53.3985H71.3973ZM36.4332 53.6593H48.3487V54.5908H54.5518V55.5452H60.6428L60.6482 56.1679H34.7815L36.4332 53.6593Z" fill="#006DFF"/>
</svg>
